<?xml version="1.0" standalone="no"?><!DOCTYPE svg PUBLIC "-//W3C//DTD SVG 1.1//EN" "http://www.w3.org/Graphics/SVG/1.1/DTD/svg11.dtd"><svg t="1760015887937" class="icon" viewBox="0 0 1024 1024" version="1.1" xmlns="http://www.w3.org/2000/svg" p-id="1083" xmlns:xlink="http://www.w3.org/1999/xlink" width="200" height="200"><path d="M813.554877 31.296109h-63.974058a35.160143 35.160143 0 0 0-38.128539 28.58361 40.78986 40.78986 0 0 0 38.128539 35.390449h63.974058a60.928893 60.928893 0 0 1 64.229955 63.974058V895.636819a60.903304 60.903304 0 0 1-64.229955 63.974059H226.528916c-38.384435 0-80.607314-25.84552-80.607313-63.974059V159.269816a60.928893 60.928893 0 0 1 64.229955-63.974058h80.351417a29.658374 29.658374 0 0 0 24.566038-35.39045 23.670402 23.670402 0 0 0-24.566038-28.583609H210.151558C120.076083 31.321699 81.947544 87.132668 81.947544 160.651656v728.203913a125.082079 125.082079 0 0 0 134.857316 134.754957h590.096715c87.00472 0 134.857315-46.266039 134.857316-134.754957V160.626066a120.475947 120.475947 0 0 0-128.204014-129.329957zM239.323728 319.870293a32.985025 32.985025 0 0 0 32.498822 32.652359h481.340816a32.677949 32.677949 0 1 0 0-65.330308H271.82255A33.010614 33.010614 0 0 0 239.323728 319.870293z m512.304261 144.274296H271.82255a32.677949 32.677949 0 0 0 0 65.330309h481.340816a33.26651 33.26651 0 0 0 32.754718-32.65236 34.494812 34.494812 0 0 0-34.290095-32.677949z m0 191.922176H271.82255a32.677949 32.677949 0 0 0 0 65.330308h481.340816a33.26651 33.26651 0 0 0 32.754718-32.652359 34.494812 34.494812 0 0 0-34.290095-32.677949zM401.306044 111.621937h223.653309A56.297171 56.297171 0 0 0 623.679872 0h-222.373828a56.297171 56.297171 0 0 0 0 111.621937z" p-id="1084" fill="#999999"></path></svg>